<svg xmlns="http://www.w3.org/2000/svg" xmlns:xlink="http://www.w3.org/1999/xlink" width="1189" height="257" viewBox="0 0 1189 257">
  <defs>
    <clipPath id="clip-logo_MIKTMC_long_color">
      <rect width="1189" height="257"/>
    </clipPath>
  </defs>
  <g id="logo_MIKTMC_long_color" clip-path="url(#clip-logo_MIKTMC_long_color)">
    <g id="logo_MIKTMC_long" transform="translate(21.999 21)">
      <g id="logomark_MiKTMC">
        <g id="MIKTMC_logomark" data-name="MIKTMC logomark">
          <g id="dots">
            <path id="Path_4870" data-name="Path 4870" d="M1093.846,348.59a4.284,4.284,0,0,1-.509,2.035,4.217,4.217,0,0,1-5.742,1.758,4.344,4.344,0,0,1-1.735-5.829,4.24,4.24,0,0,1,3.743-2.265,4.138,4.138,0,0,1,2.008.516A4.3,4.3,0,0,1,1093.846,348.59Z" transform="translate(-990.382 -338.92)" fill="#00274c"/>
            <path id="Path_4871" data-name="Path 4871" d="M1110.056,360.18a4.293,4.293,0,0,1-1.2,2.991,4.185,4.185,0,0,1-6,.086,4.332,4.332,0,0,1-.085-6.077,4.207,4.207,0,0,1,6-.086A4.3,4.3,0,0,1,1110.056,360.18Z" transform="translate(-991.256 -339.435)" fill="#00274c"/>
            <path id="Path_4872" data-name="Path 4872" d="M1121.246,376.56a4.234,4.234,0,0,1-4.243,4.3,4.215,4.215,0,0,1-2.357-.726,4.322,4.322,0,0,1,.8-7.568,4.147,4.147,0,0,1,1.565-.306,4.241,4.241,0,0,1,3.941,2.723A4.395,4.395,0,0,1,1121.246,376.56Z" transform="translate(-991.895 -340.163)" fill="#00274c"/>
            <path id="Path_4873" data-name="Path 4873" d="M1124.056,396.19c0,.105,0,.22-.009.334a4.367,4.367,0,0,1-1.358,2.828,4.206,4.206,0,0,1-2.866,1.128c-.113,0-.236,0-.349-.01a4.3,4.3,0,0,1,.33-8.581c.113,0,.236,0,.349.01A4.271,4.271,0,0,1,1124.056,396.19Z" transform="translate(-992.056 -341.141)" fill="#00274c"/>
            <path id="Path_4874" data-name="Path 4874" d="M1118.905,415.41a4.351,4.351,0,0,1-.377,1.768,4.257,4.257,0,0,1-1.6,1.854,4.138,4.138,0,0,1-2.272.669,4.053,4.053,0,0,1-1.744-.382,4.327,4.327,0,0,1-2.122-5.686h.009a4.213,4.213,0,0,1,5.61-2.15A4.334,4.334,0,0,1,1118.905,415.41Z" transform="translate(-991.761 -342.033)" fill="#00274c"/>
            <path id="Path_4875" data-name="Path 4875" d="M1108.266,432.28a4.29,4.29,0,0,1-.99,2.752,4.185,4.185,0,0,1-5.968.545,4.333,4.333,0,0,1-.537-6.058,4.2,4.2,0,0,1,5.978-.545A4.331,4.331,0,0,1,1108.266,432.28Z" transform="translate(-991.154 -342.816)" fill="#00274c"/>
            <path id="Path_4876" data-name="Path 4876" d="M1096.556,448.41a4.272,4.272,0,0,1-.415,1.844,4.319,4.319,0,0,1-1.594,1.8,4.177,4.177,0,0,1-4.064.229,4.34,4.34,0,0,1-2-5.743,4.216,4.216,0,0,1,5.657-2.016A4.305,4.305,0,0,1,1096.556,448.41Z" transform="translate(-990.532 -343.565)" fill="#00274c"/>
            <path id="Path_4877" data-name="Path 4877" d="M1093.546,467.84a4.274,4.274,0,0,1-3.508,4.224,4,4,0,0,1-.745.067,4.235,4.235,0,0,1-2.706-.994,4.323,4.323,0,0,1,1.98-7.539,3.832,3.832,0,0,1,.735-.067,4.258,4.258,0,0,1,4.177,3.564A3.975,3.975,0,0,1,1093.546,467.84Z" transform="translate(-990.365 -344.467)" fill="#00274c"/>
            <path id="Path_4878" data-name="Path 4878" d="M1102.006,485.76A4.331,4.331,0,0,1,1100,489.43a4.221,4.221,0,0,1-5.846-1.4v-.01a4.334,4.334,0,0,1,1.386-5.915,4.21,4.21,0,0,1,5.836,1.4A4.3,4.3,0,0,1,1102.006,485.76Z" transform="translate(-990.834 -345.3)" fill="#00274c"/>
            <path id="Path_4879" data-name="Path 4879" d="M1110.826,503.69a4.287,4.287,0,0,1-2.838,4.052,4.229,4.229,0,0,1-1.4.248,4.185,4.185,0,0,1-2.423-.774,4.24,4.24,0,0,1-1.575-2.112,4.3,4.3,0,0,1,2.593-5.475,4.088,4.088,0,0,1,1.414-.248,4.241,4.241,0,0,1,4,2.876v.01A4.377,4.377,0,0,1,1110.826,503.69Z" transform="translate(-991.3 -346.132)" fill="#00274c"/>
            <path id="Path_4880" data-name="Path 4880" d="M1113.706,523.3c0,.143-.009.277-.019.42a4.335,4.335,0,0,1-1.377,2.781,4.171,4.171,0,0,1-2.838,1.118c-.132,0-.264-.009-.405-.019a4.3,4.3,0,0,1,.386-8.581c.141,0,.273.01.415.019A4.27,4.27,0,0,1,1113.706,523.3Z" transform="translate(-991.465 -347.044)" fill="#00274c"/>
            <path id="Path_4881" data-name="Path 4881" d="M1106.006,541.42a4.357,4.357,0,0,1-1,2.781,4.211,4.211,0,0,1-5.978.506,4.343,4.343,0,0,1-.5-6.068,4.215,4.215,0,0,1,3.244-1.519,4.148,4.148,0,0,1,2.734,1.022A4.3,4.3,0,0,1,1106.006,541.42Z" transform="translate(-991.025 -347.92)" fill="#00274c"/>
            <path id="Path_4882" data-name="Path 4882" d="M1090.186,553.43a4.3,4.3,0,0,1-2.31,3.832,4.226,4.226,0,0,1-5.714-1.873,4.327,4.327,0,0,1,1.848-5.781h.01a4.2,4.2,0,0,1,5.7,1.873A4.351,4.351,0,0,1,1090.186,553.43Z" transform="translate(-990.179 -348.454)" fill="#00274c"/>
            <path id="Path_4883" data-name="Path 4883" d="M1071.206,559.429a4.282,4.282,0,0,1-3.686,4.252c-.189.019-.377.038-.557.038a4.2,4.2,0,0,1-2.781-1.061,4.32,4.32,0,0,1,2.225-7.511,3.612,3.612,0,0,1,.556-.038,4.259,4.259,0,0,1,4.205,3.746A3.9,3.9,0,0,1,1071.206,559.429Z" transform="translate(-989.127 -348.72)" fill="#00274c"/>
            <path id="Path_4884" data-name="Path 4884" d="M1051.232,559.436a4.288,4.288,0,0,1-1.509,2.418,4.189,4.189,0,0,1-2.631.927,4.015,4.015,0,0,1-.943-.105,4.307,4.307,0,0,1,.952-8.495,4.422,4.422,0,0,1,.924.105v.01A4.306,4.306,0,0,1,1051.232,559.436Z" transform="translate(-988.026 -348.678)" fill="#00274c"/>
            <path id="Path_4885" data-name="Path 4885" d="M1033.026,550.7a4.334,4.334,0,0,1-.726,2.408,4.21,4.21,0,0,1-5.893,1.156,4.339,4.339,0,0,1-1.141-5.972,4.211,4.211,0,0,1,5.893-1.156A4.306,4.306,0,0,1,1033.026,550.7Z" transform="translate(-987.012 -348.332)" fill="#00274c"/>
            <path id="Path_4886" data-name="Path 4886" d="M1019.285,536.31a4.336,4.336,0,0,1-1.707,3.45,4.152,4.152,0,0,1-2.536.86,4.24,4.24,0,0,1-3.4-1.73,4.339,4.339,0,0,1,.858-6.02,4.2,4.2,0,0,1,5.94.87A4.347,4.347,0,0,1,1019.285,536.31Z" transform="translate(-986.25 -347.693)" fill="#00274c"/>
            <path id="Path_4887" data-name="Path 4887" d="M1008.536,519.47a4.315,4.315,0,0,1-2.235,3.794,4.208,4.208,0,0,1-5.742-1.749,4.337,4.337,0,0,1,1.716-5.829,4.265,4.265,0,0,1,6.261,3.784Z" transform="translate(-985.681 -346.865)" fill="#00274c"/>
            <path id="Path_4888" data-name="Path 4888" d="M1000.416,501.22a4.3,4.3,0,0,1-2.819,4.052,4.14,4.14,0,0,1-1.424.248,4.268,4.268,0,0,1-2.423-.764,4.331,4.331,0,0,1,1-7.587,4.142,4.142,0,0,1,1.424-.248,4.254,4.254,0,0,1,4,2.857A4.3,4.3,0,0,1,1000.416,501.22Z" transform="translate(-985.217 -346.018)" fill="#00274c"/>
            <path id="Path_4889" data-name="Path 4889" d="M995.205,481.93a4.306,4.306,0,0,1-3.47,4.233,4.4,4.4,0,0,1-.783.067,4.279,4.279,0,0,1-4.167-3.516,4.308,4.308,0,0,1,3.4-5.017,4.2,4.2,0,0,1,4.941,3.45A4.493,4.493,0,0,1,995.205,481.93Z" transform="translate(-984.919 -345.122)" fill="#00274c"/>
            <path id="Path_4890" data-name="Path 4890" d="M993.3,461.86v.172a4.336,4.336,0,0,1-1.235,3.039,4.205,4.205,0,0,1-6.006.019,4.344,4.344,0,0,1-1.245-3.039v-.191a4.3,4.3,0,0,1,1.245-3.039,4.194,4.194,0,0,1,6,0A4.345,4.345,0,0,1,993.3,461.86Z" transform="translate(-984.81 -344.19)" fill="#00274c"/>
            <path id="Path_4891" data-name="Path 4891" d="M994.485,441.89a4.351,4.351,0,0,1-1.433,3.22,4.156,4.156,0,0,1-2.81,1.089,2.721,2.721,0,0,1-.481-.038,4.283,4.283,0,0,1-3.743-4.749l.009-.01a4.262,4.262,0,0,1,4.215-3.813,4.065,4.065,0,0,1,.481.029A4.292,4.292,0,0,1,994.485,441.89Z" transform="translate(-984.878 -343.263)" fill="#00274c"/>
            <path id="Path_4892" data-name="Path 4892" d="M997.766,422.17a4.416,4.416,0,0,1-.094.927,4.337,4.337,0,0,1-1.508,2.437,4.246,4.246,0,0,1-2.631.927,4.237,4.237,0,0,1-4.148-5.227,4.258,4.258,0,0,1,4.13-3.373,4.35,4.35,0,0,1,.924.105A4.291,4.291,0,0,1,997.766,422.17Z" transform="translate(-985.066 -342.347)" fill="#00274c"/>
            <path id="Path_4893" data-name="Path 4893" d="M1003.216,402.93a4.375,4.375,0,0,1-.236,1.424,4.245,4.245,0,0,1-4.007,2.876,4.037,4.037,0,0,1-1.4-.248,4.307,4.307,0,0,1-2.593-5.485,4.2,4.2,0,0,1,5.412-2.628A4.313,4.313,0,0,1,1003.216,402.93Z" transform="translate(-985.377 -341.454)" fill="#00274c"/>
            <path id="Path_4894" data-name="Path 4894" d="M1011.246,384.63a4.282,4.282,0,0,1-.509,2.035A4.217,4.217,0,0,1,1007,388.92a4.148,4.148,0,0,1-2.018-.516,4.326,4.326,0,0,1-1.716-5.819,4.241,4.241,0,0,1,3.743-2.265,4.138,4.138,0,0,1,2.008.516A4.314,4.314,0,0,1,1011.246,384.63Z" transform="translate(-985.836 -340.604)" fill="#00274c"/>
            <path id="Path_4895" data-name="Path 4895" d="M1022.416,368.08a4.357,4.357,0,0,1-1,2.781h-.009a4.2,4.2,0,0,1-5.978.5,4.34,4.34,0,0,1-.49-6.058,4.2,4.2,0,0,1,5.978-.5A4.3,4.3,0,0,1,1022.416,368.08Z" transform="translate(-986.424 -339.786)" fill="#00274c"/>
            <path id="Path_4896" data-name="Path 4896" d="M1037.386,354.87a4.32,4.32,0,0,1-1.857,3.564,4.165,4.165,0,0,1-2.385.745,4.214,4.214,0,0,1-3.507-1.882,4.329,4.329,0,0,1,1.122-5.972,4.143,4.143,0,0,1,2.385-.745,4.226,4.226,0,0,1,3.507,1.882A4.271,4.271,0,0,1,1037.386,354.87Z" transform="translate(-987.253 -339.199)" fill="#00274c"/>
            <path id="Path_4897" data-name="Path 4897" d="M1055.166,345.85a4.254,4.254,0,0,1-4.243,4.3,4.183,4.183,0,0,1-2.442-.784,4.3,4.3,0,0,1,2.442-7.816,4.244,4.244,0,0,1,4.017,2.914A4.443,4.443,0,0,1,1055.166,345.85Z" transform="translate(-988.238 -338.798)" fill="#00274c"/>
            <path id="Path_4898" data-name="Path 4898" d="M1074.826,342.96a2.456,2.456,0,0,1-.009.268,4.283,4.283,0,0,1-1.329,2.876,4.171,4.171,0,0,1-2.895,1.166,2.519,2.519,0,0,1-.264-.01,4.3,4.3,0,0,1,.245-8.59,2.353,2.353,0,0,1,.264.01A4.267,4.267,0,0,1,1074.826,342.96Z" transform="translate(-989.328 -338.67)" fill="#00274c"/>
          </g>
          <g id="icon-dna" transform="translate(24.389 22.548)">
            <path id="Path_4899" data-name="Path 4899" d="M1059.751,536.715a33.267,33.267,0,0,0,11.511-16.567l-39.645-4.921a1.13,1.13,0,0,1,.272-2.244l39.984,4.963a30.581,30.581,0,0,0,.4-11.536l-47.559-5.9a1.7,1.7,0,0,1,.331-3.392l.079.01,46.43,5.763a50.418,50.418,0,0,0-4.375-10.99l-40.549-5.033a2.27,2.27,0,0,1,.539-4.507h.008l37.164,4.614c-2.136-3.422-4.555-6.813-7.106-10.191l-20.709-2.57a2.835,2.835,0,0,1,.679-5.629h0l15.085,1.873c-1.094-1.357-2.173-2.712-3.268-4.067-.227-.288-3.381-4.357-4.764-6.14-2.192-2.827-4.432-5.676-6.614-8.584a129.927,129.927,0,0,1-12.017-18.559c-5.93-11.639-7.567-22.288-4.968-32.525a42.149,42.149,0,0,1,21.638-27.2,33.167,33.167,0,0,0-12.025,18.231c-2.333,9.245.07,18.2,4.63,26.793,4.558,8.564,11.3,16.9,17.983,25.185.256.32,3.463,4.5,4.85,6.268,2.209,2.829,4.432,5.675,6.612,8.6A128.749,128.749,0,0,1,1076.374,477c5.948,11.641,7.568,22.289,4.978,32.527a42.219,42.219,0,0,1-21.606,27.191Zm-34.7-21.276a42.177,42.177,0,0,1-14.494-31.5c-.084-10.509,4.045-20.366,12.592-30.158a95.5,95.5,0,0,1,7.528-7.623c1.658,2.406,3.386,4.772,5.164,7.128l.4.519c1.412,1.859,2.846,3.686,4.265,5.5a105.963,105.963,0,0,0-11.85,10.953c-6.49,7.165-10.957,15.22-10.9,24.707a33.187,33.187,0,0,0,7.3,20.481Zm32.431-69.134c-.271-.322-.539-.666-.779-.988-.507-.662-.974-1.253-1.342-1.72-.353-.465-.606-.788-.664-.86l-.014-.018-.011-.034c-2.647-3.242-5.255-6.481-7.749-9.72.27-.21.543-.434.814-.643,1.767-1.367,5.878-4.6,6.208-4.862,1.331-1.016,2.679-2.03,4.027-3.044l-15.123-1.878a2.82,2.82,0,0,1,.536-5.614c.049,0,.1.01.144.018l20.753,2.576c3.275-2.637,6.426-5.321,9.312-8.1l-37.163-4.613a2.258,2.258,0,0,1,.542-4.483h0l40.541,5.033a48.978,48.978,0,0,0,6.841-9.543l-46.4-5.759a1.7,1.7,0,0,1,.329-3.374c.026,0,.053.006.079.01l47.508,5.9a29.97,29.97,0,0,0,2.344-11.234l-39.932-4.965a1.124,1.124,0,0,1,.271-2.232l39.61,4.917a33.169,33.169,0,0,0-7.241-18.8,42.264,42.264,0,0,1,14.477,31.556c.062,10.515-4.042,20.38-12.58,30.182a129.238,129.238,0,0,1-16.058,14.966c-2.806,2.273-5.638,4.48-8.452,6.671-.237.2-.526.421-.832.658Z" transform="translate(-1010.553 -362.267)" fill="#ffcb05" fill-rule="evenodd"/>
          </g>
        </g>
      </g>
      <path id="Path_5270" data-name="Path 5270" d="M31.191,50.87a12.944,12.944,0,0,1,.87,1.768q.373.927.728,1.873.355-.98.746-1.873t.888-1.8L51.639,20a2.029,2.029,0,0,1,.959-.98,4.473,4.473,0,0,1,1.42-.175h5.077V69H53.059V32.145q0-.735.035-1.575t.107-1.715L35.771,60.215a2.741,2.741,0,0,1-2.485,1.575h-.994a2.741,2.741,0,0,1-2.485-1.575L11.985,28.75q.107.91.16,1.785t.053,1.61V69H6.163V18.845H11.24a4.473,4.473,0,0,1,1.42.175,2.029,2.029,0,0,1,.959.98ZM81.779,69H74.892V18.845h6.887ZM133.4,58.64a1.435,1.435,0,0,1,1.03.455l2.7,2.9a21.743,21.743,0,0,1-7.579,5.565,26.166,26.166,0,0,1-10.739,1.995,25.6,25.6,0,0,1-9.976-1.872,21.868,21.868,0,0,1-7.633-5.25,23.668,23.668,0,0,1-4.9-8.1,29.882,29.882,0,0,1-1.74-10.4,28.092,28.092,0,0,1,1.864-10.4,23.713,23.713,0,0,1,5.236-8.12,23.46,23.46,0,0,1,8.076-5.267,27.84,27.84,0,0,1,10.384-1.873A24.8,24.8,0,0,1,129.794,20a24.484,24.484,0,0,1,7.224,4.655l-2.237,3.115a2.419,2.419,0,0,1-.568.577,1.58,1.58,0,0,1-.923.228,1.814,1.814,0,0,1-.976-.333q-.515-.332-1.225-.822t-1.669-1.05a14.719,14.719,0,0,0-2.272-1.05A18.983,18.983,0,0,0,124.1,24.5a21.547,21.547,0,0,0-4.012-.333,19.612,19.612,0,0,0-7.473,1.382,16.743,16.743,0,0,0-5.84,3.938,17.87,17.87,0,0,0-3.816,6.23,23.454,23.454,0,0,0-1.367,8.225,23.888,23.888,0,0,0,1.367,8.365,18.417,18.417,0,0,0,3.728,6.213,15.719,15.719,0,0,0,5.591,3.868,18.1,18.1,0,0,0,6.958,1.33,28.652,28.652,0,0,0,4.083-.263,16.963,16.963,0,0,0,3.355-.822,14.278,14.278,0,0,0,2.876-1.417,22.452,22.452,0,0,0,2.68-2.048A1.816,1.816,0,0,1,133.4,58.64ZM189.559,69h-6.923V46.18H155.23V69h-6.923V18.845h6.923V41.21h27.406V18.845h6.923Zm22.72,0h-6.887V18.845h6.887Zm38.447-4.935a34.182,34.182,0,0,0,3.781-.193,24.344,24.344,0,0,0,3.248-.578,22.35,22.35,0,0,0,2.876-.927q1.349-.543,2.7-1.243V50.065h-7.881a1.514,1.514,0,0,1-1.083-.385,1.248,1.248,0,0,1-.408-.945v-3.85h15.62v19.25a28.306,28.306,0,0,1-3.994,2.38,27.439,27.439,0,0,1-4.438,1.7,32.536,32.536,0,0,1-5.059,1.015,48.037,48.037,0,0,1-5.858.332,26.762,26.762,0,0,1-10.153-1.872,23.4,23.4,0,0,1-7.952-5.25,23.794,23.794,0,0,1-5.2-8.1,28.092,28.092,0,0,1-1.864-10.4,28.779,28.779,0,0,1,1.828-10.465,22.984,22.984,0,0,1,5.219-8.1,23.358,23.358,0,0,1,8.2-5.232,29.742,29.742,0,0,1,10.774-1.855,33.742,33.742,0,0,1,5.609.438,26.521,26.521,0,0,1,4.81,1.26,22.54,22.54,0,0,1,4.1,2,25.02,25.02,0,0,1,3.515,2.642l-1.953,3.08a1.8,1.8,0,0,1-1.562.945,2.542,2.542,0,0,1-1.243-.385q-.888-.49-1.988-1.19a17.117,17.117,0,0,0-2.68-1.347,21.812,21.812,0,0,0-3.728-1.1,24.879,24.879,0,0,0-5.094-.455,20.891,20.891,0,0,0-7.775,1.382,16.458,16.458,0,0,0-5.929,3.955,17.456,17.456,0,0,0-3.763,6.23,24.162,24.162,0,0,0-1.314,8.208,24.552,24.552,0,0,0,1.367,8.487,17.876,17.876,0,0,0,3.852,6.318A16.636,16.636,0,0,0,243.2,62.7,20.069,20.069,0,0,0,250.727,64.065ZM324.142,69h-5.325a2.313,2.313,0,0,1-1.491-.455,2.8,2.8,0,0,1-.852-1.155l-4.757-12.11H288.89l-4.757,12.11a2.738,2.738,0,0,1-.852,1.12,2.289,2.289,0,0,1-1.491.49h-5.325l20.342-50.155H303.8ZM290.807,50.38H309.8l-7.988-20.4a37.759,37.759,0,0,1-1.527-4.725q-.39,1.435-.763,2.643t-.728,2.118Zm45.441-31.535a3.129,3.129,0,0,1,1.367.228,3.518,3.518,0,0,1,1.012.927l29.465,37.8q-.106-.91-.142-1.767t-.036-1.663V18.845h6.035V69H370.47a3,3,0,0,1-1.367-.28,3.437,3.437,0,0,1-1.083-.945L338.591,30.01q.071.875.107,1.715t.036,1.54V69H332.7V18.845ZM411.9,40.825h2.592a5.7,5.7,0,0,0,2.148-.332,4.185,4.185,0,0,0,1.509-1.138l16.934-18.9a5.337,5.337,0,0,1,1.509-1.243,4.13,4.13,0,0,1,1.864-.367h5.858l-19.383,21.6a16.807,16.807,0,0,1-1.4,1.365,6.252,6.252,0,0,1-1.4.91,5,5,0,0,1,1.74.945,14.318,14.318,0,0,1,1.562,1.575L445.66,69H439.7a5.216,5.216,0,0,1-1.136-.105,3.345,3.345,0,0,1-.8-.28,2.566,2.566,0,0,1-.621-.455q-.284-.28-.568-.6L419,47.65q-.391-.42-.728-.718a3.317,3.317,0,0,0-.781-.507,3.666,3.666,0,0,0-1.029-.3,9.955,9.955,0,0,0-1.438-.087H411.9V69h-6.852V18.845H411.9ZM462.985,69H456.1V18.845h6.887Zm59.854-25.06a27.887,27.887,0,0,1-1.811,10.255A22.3,22.3,0,0,1,508,67.2,27.884,27.884,0,0,1,497.775,69H478.747V18.845h19.028A27.884,27.884,0,0,1,508,20.647a22.358,22.358,0,0,1,13.029,13.038A27.887,27.887,0,0,1,522.839,43.94Zm-7.065,0a24.849,24.849,0,0,0-1.278-8.26,17.353,17.353,0,0,0-3.621-6.16,15.452,15.452,0,0,0-5.68-3.85,19.879,19.879,0,0,0-7.42-1.33H485.67V63.505h12.106a19.879,19.879,0,0,0,7.42-1.33,15.553,15.553,0,0,0,5.68-3.833A17.174,17.174,0,0,0,514.5,52.2,24.849,24.849,0,0,0,515.774,43.94Zm22.117-25.095a3.129,3.129,0,0,1,1.367.228,3.518,3.518,0,0,1,1.012.927l29.466,37.8q-.107-.91-.142-1.767t-.035-1.663V18.845h6.035V69h-3.479a3,3,0,0,1-1.367-.28,3.438,3.438,0,0,1-1.083-.945L540.234,30.01q.071.875.107,1.715t.035,1.54V69h-6.035V18.845Zm83.6,0v5.53H597.07v16.66h19.774v5.32H597.07V63.47h24.424V69H590.148V18.845ZM653.126,49.05V69h-6.852V49.05L627.636,18.845h6.035a2.168,2.168,0,0,1,1.456.455,4.358,4.358,0,0,1,.923,1.12l11.644,19.5a23.887,23.887,0,0,1,1.189,2.31q.479,1.085.87,2.135.39-1.085.852-2.17a18.925,18.925,0,0,1,1.172-2.275l11.609-19.5a4.491,4.491,0,0,1,.87-1.067,2.037,2.037,0,0,1,1.438-.507H671.8ZM40.812,88.845V94.55H24.375V139H17.488V94.55H.98V88.845ZM57.745,118.07V139H50.894V88.845H65.272a31.842,31.842,0,0,1,8.343.962,16.015,16.015,0,0,1,5.8,2.783,11.16,11.16,0,0,1,3.39,4.393,14.5,14.5,0,0,1,1.1,5.757,14.25,14.25,0,0,1-.852,4.97,13.086,13.086,0,0,1-2.467,4.147,14.724,14.724,0,0,1-3.941,3.132,19.68,19.68,0,0,1-5.272,1.96,7.231,7.231,0,0,1,2.272,2.135L88.489,139H82.383a3.022,3.022,0,0,1-2.769-1.435l-13.206-17.92a3.826,3.826,0,0,0-1.314-1.208,4.8,4.8,0,0,0-2.13-.368Zm0-4.935h7.207a17.779,17.779,0,0,0,5.307-.717,10.848,10.848,0,0,0,3.834-2.03,8.428,8.428,0,0,0,2.325-3.132,10.1,10.1,0,0,0,.781-4.025,7.946,7.946,0,0,0-3-6.755q-3-2.275-8.928-2.275H57.745ZM139.894,139h-5.325a2.313,2.313,0,0,1-1.491-.455,2.8,2.8,0,0,1-.852-1.155l-4.757-12.11H104.642l-4.757,12.11a2.738,2.738,0,0,1-.852,1.12,2.289,2.289,0,0,1-1.491.49H92.217l20.342-50.155h6.994Zm-33.335-18.62h18.993l-7.988-20.4a37.751,37.751,0,0,1-1.527-4.725q-.391,1.435-.763,2.643t-.728,2.118ZM152,88.845a3.129,3.129,0,0,1,1.367.228,3.518,3.518,0,0,1,1.012.927l29.465,37.8q-.106-.91-.142-1.768t-.036-1.662V88.845H189.7V139h-3.479a3,3,0,0,1-1.367-.28,3.437,3.437,0,0,1-1.083-.945l-29.43-37.765q.071.875.107,1.715t.035,1.54V139h-6.035V88.845Zm78.314,7.84a2.724,2.724,0,0,1-.674.788,1.514,1.514,0,0,1-.923.262,2.477,2.477,0,0,1-1.4-.6,22.378,22.378,0,0,0-2.024-1.312,16.536,16.536,0,0,0-2.947-1.312,12.846,12.846,0,0,0-4.171-.6,12.5,12.5,0,0,0-4.083.613,8.712,8.712,0,0,0-2.964,1.662,6.828,6.828,0,0,0-1.793,2.467,7.736,7.736,0,0,0-.6,3.063,5.6,5.6,0,0,0,1.047,3.483,8.987,8.987,0,0,0,2.769,2.362,21.368,21.368,0,0,0,3.905,1.7q2.183.717,4.473,1.488t4.473,1.732a15.765,15.765,0,0,1,3.905,2.432,11.107,11.107,0,0,1,2.769,3.605,11.853,11.853,0,0,1,1.047,5.25,16.72,16.72,0,0,1-1.136,6.177,14.223,14.223,0,0,1-3.319,5.023,15.557,15.557,0,0,1-5.361,3.36,19.97,19.97,0,0,1-7.224,1.225,22.333,22.333,0,0,1-9-1.768,21.114,21.114,0,0,1-6.94-4.777l1.988-3.22a2.6,2.6,0,0,1,.692-.647,1.639,1.639,0,0,1,.905-.263,2.843,2.843,0,0,1,1.7.788,28.374,28.374,0,0,0,2.4,1.732,18.4,18.4,0,0,0,3.479,1.732,13.907,13.907,0,0,0,4.988.788,13.286,13.286,0,0,0,4.367-.665,9.3,9.3,0,0,0,3.248-1.872,8.113,8.113,0,0,0,2.041-2.887,9.53,9.53,0,0,0,.71-3.745,6.219,6.219,0,0,0-1.047-3.728,8.64,8.64,0,0,0-2.751-2.432,19.376,19.376,0,0,0-3.887-1.663l-4.473-1.4a45.515,45.515,0,0,1-4.473-1.662,14.565,14.565,0,0,1-3.887-2.45,11.265,11.265,0,0,1-2.751-3.762,13.615,13.615,0,0,1,3.035-15.137,14.738,14.738,0,0,1,4.917-3.08,18.241,18.241,0,0,1,6.727-1.155,21.809,21.809,0,0,1,7.775,1.33,17.938,17.938,0,0,1,6.142,3.85Zm20.59,36.61h22.01V139h-28.9V88.845H250.9ZM324.5,139h-5.325a2.313,2.313,0,0,1-1.491-.455,2.8,2.8,0,0,1-.852-1.155l-4.757-12.11H289.245l-4.757,12.11a2.738,2.738,0,0,1-.852,1.12,2.289,2.289,0,0,1-1.491.49H276.82l20.342-50.155h6.994Zm-33.335-18.62h18.993l-7.988-20.4a37.759,37.759,0,0,1-1.527-4.725q-.39,1.435-.763,2.643t-.728,2.118Zm71.853-31.535V94.55H346.578V139h-6.887V94.55H323.183V88.845ZM380.552,139h-6.887V88.845h6.887Zm63.014-25.06a28.585,28.585,0,0,1-1.811,10.342,23.636,23.636,0,0,1-5.112,8.1,22.868,22.868,0,0,1-7.934,5.268,28.9,28.9,0,0,1-20.466,0,22.9,22.9,0,0,1-7.917-5.268,23.637,23.637,0,0,1-5.112-8.1,30.446,30.446,0,0,1,0-20.685,23.824,23.824,0,0,1,5.112-8.12,22.989,22.989,0,0,1,7.917-5.3,28.647,28.647,0,0,1,20.466,0,22.951,22.951,0,0,1,7.934,5.3,23.824,23.824,0,0,1,5.112,8.12A28.585,28.585,0,0,1,443.566,113.94Zm-7.065,0a25.16,25.16,0,0,0-1.278-8.295,17.488,17.488,0,0,0-3.621-6.213,15.717,15.717,0,0,0-5.68-3.9,20.944,20.944,0,0,0-14.875,0,15.888,15.888,0,0,0-5.7,3.9,17.347,17.347,0,0,0-3.639,6.213,27.5,27.5,0,0,0,0,16.572,17.37,17.37,0,0,0,3.639,6.2,15.7,15.7,0,0,0,5.7,3.885,21.2,21.2,0,0,0,14.875,0,15.533,15.533,0,0,0,5.68-3.885,17.512,17.512,0,0,0,3.621-6.2A25,25,0,0,0,436.5,113.94Zm22.152-25.1a3.128,3.128,0,0,1,1.367.228,3.518,3.518,0,0,1,1.012.927L490.5,127.8q-.106-.91-.142-1.768t-.035-1.662V88.845h6.035V139h-3.479a3,3,0,0,1-1.367-.28,3.437,3.437,0,0,1-1.083-.945L461,100.01q.071.875.107,1.715t.035,1.54V139H455.1V88.845ZM552.766,139H547.44a2.313,2.313,0,0,1-1.491-.455,2.8,2.8,0,0,1-.852-1.155l-4.757-12.11H517.514l-4.757,12.11a2.739,2.739,0,0,1-.852,1.12,2.289,2.289,0,0,1-1.491.49h-5.325L525.43,88.845h6.994Zm-33.335-18.62h18.993l-7.988-20.4a37.738,37.738,0,0,1-1.527-4.725q-.39,1.435-.763,2.643t-.728,2.118Zm48.778,12.915h22.01V139h-28.9V88.845h6.887Zm72.6-12.425a12.938,12.938,0,0,1,.87,1.768q.373.928.728,1.873.355-.98.745-1.873t.888-1.8L661.255,90a2.029,2.029,0,0,1,.958-.98,4.473,4.473,0,0,1,1.42-.175h5.077V139h-6.035V102.145q0-.735.035-1.575t.107-1.715l-17.431,31.36a2.741,2.741,0,0,1-2.485,1.575h-.994a2.74,2.74,0,0,1-2.485-1.575L621.6,98.75q.107.91.16,1.785t.053,1.61V139h-6.035V88.845h5.077a4.473,4.473,0,0,1,1.42.175,2.029,2.029,0,0,1,.959.98Zm73.77-32.025v5.53H690.153v16.66h19.774v5.32H690.153V133.47h24.424V139H683.23V88.845Zm56.126,25.1a27.887,27.887,0,0,1-1.81,10.255,22.3,22.3,0,0,1-13.029,13A27.884,27.884,0,0,1,745.64,139H726.612V88.845H745.64a27.885,27.885,0,0,1,10.224,1.8,22.358,22.358,0,0,1,13.029,13.037A27.887,27.887,0,0,1,770.7,113.94Zm-7.065,0a24.847,24.847,0,0,0-1.278-8.26,17.354,17.354,0,0,0-3.621-6.16,15.451,15.451,0,0,0-5.68-3.85,19.878,19.878,0,0,0-7.42-1.33H733.535v39.165H745.64a19.878,19.878,0,0,0,7.42-1.33,15.553,15.553,0,0,0,5.68-3.833,17.175,17.175,0,0,0,3.621-6.143A24.847,24.847,0,0,0,763.639,113.94ZM790.371,139h-6.887V88.845h6.887Zm51.618-10.36a1.435,1.435,0,0,1,1.03.455l2.7,2.9a21.743,21.743,0,0,1-7.579,5.565A26.166,26.166,0,0,1,827.4,139.56a25.6,25.6,0,0,1-9.976-1.872,21.869,21.869,0,0,1-7.633-5.25,23.669,23.669,0,0,1-4.9-8.1,29.882,29.882,0,0,1-1.74-10.395,28.093,28.093,0,0,1,1.864-10.4,23.713,23.713,0,0,1,5.236-8.12,23.459,23.459,0,0,1,8.076-5.268,27.84,27.84,0,0,1,10.384-1.872A24.8,24.8,0,0,1,838.386,90a24.484,24.484,0,0,1,7.224,4.655l-2.237,3.115a2.418,2.418,0,0,1-.568.577,1.58,1.58,0,0,1-.923.227,1.814,1.814,0,0,1-.976-.332q-.515-.332-1.225-.823t-1.669-1.05a14.718,14.718,0,0,0-2.272-1.05,18.985,18.985,0,0,0-3.053-.823,21.548,21.548,0,0,0-4.012-.332,19.612,19.612,0,0,0-7.473,1.382,16.743,16.743,0,0,0-5.84,3.938,17.872,17.872,0,0,0-3.816,6.23,23.456,23.456,0,0,0-1.367,8.225,23.889,23.889,0,0,0,1.367,8.365,18.42,18.42,0,0,0,3.728,6.213,15.719,15.719,0,0,0,5.591,3.867,18.1,18.1,0,0,0,6.958,1.33,28.652,28.652,0,0,0,4.083-.262,16.963,16.963,0,0,0,3.355-.822,14.278,14.278,0,0,0,2.876-1.418,22.447,22.447,0,0,0,2.68-2.048A1.817,1.817,0,0,1,841.989,128.64ZM865.064,139h-6.887V88.845h6.887Zm19.312-50.155a3.129,3.129,0,0,1,1.367.228,3.518,3.518,0,0,1,1.012.927l29.466,37.8q-.107-.91-.142-1.768t-.036-1.662V88.845h6.035V139H918.6a3,3,0,0,1-1.367-.28,3.438,3.438,0,0,1-1.083-.945L886.72,100.01q.071.875.107,1.715t.035,1.54V139h-6.035V88.845Zm83.6,0v5.53H943.556v16.66H963.33v5.32H943.556V133.47H967.98V139H936.633V88.845ZM42.019,198.64a1.435,1.435,0,0,1,1.03.455l2.7,2.9a21.743,21.743,0,0,1-7.579,5.565,26.166,26.166,0,0,1-10.739,1.995,25.6,25.6,0,0,1-9.976-1.872,21.869,21.869,0,0,1-7.633-5.25,23.668,23.668,0,0,1-4.9-8.1,29.882,29.882,0,0,1-1.74-10.4,28.092,28.092,0,0,1,1.864-10.4,23.713,23.713,0,0,1,5.236-8.12,23.46,23.46,0,0,1,8.076-5.268,27.84,27.84,0,0,1,10.384-1.872A24.8,24.8,0,0,1,38.415,160a24.484,24.484,0,0,1,7.224,4.655L43.4,167.77a2.419,2.419,0,0,1-.568.577,1.58,1.58,0,0,1-.923.227,1.814,1.814,0,0,1-.976-.333q-.515-.332-1.225-.822t-1.669-1.05a14.718,14.718,0,0,0-2.272-1.05,18.981,18.981,0,0,0-3.053-.823,21.547,21.547,0,0,0-4.012-.332,19.612,19.612,0,0,0-7.473,1.382,16.743,16.743,0,0,0-5.84,3.938,17.87,17.87,0,0,0-3.816,6.23,23.454,23.454,0,0,0-1.367,8.225,23.888,23.888,0,0,0,1.367,8.365,18.417,18.417,0,0,0,3.728,6.213,15.719,15.719,0,0,0,5.591,3.867,18.1,18.1,0,0,0,6.958,1.33,28.652,28.652,0,0,0,4.083-.262,16.963,16.963,0,0,0,3.355-.822,14.279,14.279,0,0,0,2.876-1.418,22.452,22.452,0,0,0,2.68-2.048A1.816,1.816,0,0,1,42.019,198.64Zm46.257-39.795v5.53H63.852v16.66H83.625v5.32H63.852V203.47H88.276V209H56.929V158.845Zm15.585,0a3.128,3.128,0,0,1,1.367.228,3.518,3.518,0,0,1,1.012.927L135.7,197.8q-.106-.91-.142-1.768t-.036-1.663V158.845h6.035V209h-3.479a3,3,0,0,1-1.367-.28,3.437,3.437,0,0,1-1.083-.945L106.2,170.01q.071.875.106,1.715t.035,1.54V209h-6.035V158.845Zm86.905,0v5.705H174.329V209h-6.887V164.55H150.934v-5.705Zm40.719,0v5.53H207.061v16.66h19.774v5.32H207.061V203.47h24.424V209H200.138V158.845Zm19.6,29.225V209H244.23V158.845h14.378a31.842,31.842,0,0,1,8.343.962,16.015,16.015,0,0,1,5.8,2.783,11.16,11.16,0,0,1,3.39,4.393,14.5,14.5,0,0,1,1.1,5.757,14.251,14.251,0,0,1-.852,4.97,13.087,13.087,0,0,1-2.467,4.147,14.724,14.724,0,0,1-3.941,3.133,19.68,19.68,0,0,1-5.272,1.96,7.23,7.23,0,0,1,2.272,2.135L281.825,209h-6.106a3.022,3.022,0,0,1-2.769-1.435l-13.206-17.92a3.826,3.826,0,0,0-1.314-1.208,4.8,4.8,0,0,0-2.13-.367Zm0-4.935h7.207a17.779,17.779,0,0,0,5.307-.717,10.848,10.848,0,0,0,3.834-2.03,8.427,8.427,0,0,0,2.325-3.132,10.1,10.1,0,0,0,.781-4.025,7.946,7.946,0,0,0-3-6.755q-3-2.275-8.928-2.275h-7.526Z" transform="translate(161.02 -6.422)" fill="#00274c"/>
    </g>
  </g>
</svg>
